<?xml version="1.0" encoding="UTF-8" standalone="no"?>
<!DOCTYPE svg PUBLIC "-//W3C//DTD SVG 1.1//EN"
 "http://www.w3.org/Graphics/SVG/1.1/DTD/svg11.dtd">
<!-- Generated by graphviz version 2.40.1 (20161225.0304)
 -->
<!-- Title: %3 Pages: 1 -->
<svg width="90pt" height="260pt"
 viewBox="0.00 0.00 90.00 260.00" xmlns="http://www.w3.org/2000/svg" xmlns:xlink="http://www.w3.org/1999/xlink">
<g id="graph0" class="graph" transform="scale(1 1) rotate(0) translate(4 256)">
<title>%3</title>
<polygon fill="#ffffff" stroke="transparent" points="-4,4 -4,-256 86,-256 86,4 -4,4"/>
<!-- T -->
<g id="node1" class="node">
<title>T</title>
<ellipse fill="none" stroke="#000000" cx="55" cy="-90" rx="27" ry="18"/>
<text text-anchor="middle" x="55" y="-85.8" font-family="Times,serif" font-size="14.00" fill="#000000">T</text>
</g>
<!-- Y -->
<g id="node2" class="node">
<title>Y</title>
<ellipse fill="none" stroke="#000000" cx="27" cy="-18" rx="27" ry="18"/>
<text text-anchor="middle" x="27" y="-13.8" font-family="Times,serif" font-size="14.00" fill="#000000">Y</text>
</g>
<!-- T&#45;&gt;Y -->
<g id="edge1" class="edge">
<title>T&#45;&gt;Y</title>
<path fill="none" stroke="#000000" d="M48.222,-72.5708C45.0128,-64.3187 41.1065,-54.2738 37.5242,-45.0623"/>
<polygon fill="#000000" stroke="#000000" points="40.6992,-43.5697 33.8126,-35.5182 34.1752,-46.1069 40.6992,-43.5697"/>
</g>
<!-- X -->
<g id="node3" class="node">
<title>X</title>
<ellipse fill="none" stroke="#000000" cx="27" cy="-234" rx="27" ry="18"/>
<text text-anchor="middle" x="27" y="-229.8" font-family="Times,serif" font-size="14.00" fill="#000000">X</text>
</g>
<!-- X&#45;&gt;Y -->
<g id="edge2" class="edge">
<title>X&#45;&gt;Y</title>
<path fill="none" stroke="#000000" d="M23.6685,-216.0736C21.8913,-205.5982 19.8913,-192.0982 19,-180 15.4733,-132.1297 15.4733,-119.8703 19,-72 19.6267,-63.4935 20.8015,-54.2939 22.0616,-45.9399"/>
<polygon fill="#000000" stroke="#000000" points="25.5398,-46.3546 23.6685,-35.9264 18.6282,-45.2455 25.5398,-46.3546"/>
</g>
<!-- P(x) -->
<g id="node4" class="node">
<title>P(x)</title>
<ellipse fill="none" stroke="#000000" cx="55" cy="-162" rx="27" ry="18"/>
<text text-anchor="middle" x="55" y="-157.8" font-family="Times,serif" font-size="14.00" fill="#000000">P(x)</text>
</g>
<!-- X&#45;&gt;P(x) -->
<g id="edge3" class="edge">
<title>X&#45;&gt;P(x)</title>
<path fill="none" stroke="#000000" d="M33.778,-216.5708C36.9872,-208.3187 40.8935,-198.2738 44.4758,-189.0623"/>
<polygon fill="#000000" stroke="#000000" points="47.8248,-190.1069 48.1874,-179.5182 41.3008,-187.5697 47.8248,-190.1069"/>
</g>
<!-- P(x)&#45;&gt;T -->
<g id="edge4" class="edge">
<title>P(x)&#45;&gt;T</title>
<path fill="none" stroke="#000000" d="M55,-143.8314C55,-136.131 55,-126.9743 55,-118.4166"/>
<polygon fill="#000000" stroke="#000000" points="58.5001,-118.4132 55,-108.4133 51.5001,-118.4133 58.5001,-118.4132"/>
</g>
</g>
</svg>
